
<svg width="59px" height="36px" viewBox="0 0 59 36" version="1.1" xmlns="http://www.w3.org/2000/svg" xmlns:xlink="http://www.w3.org/1999/xlink">
    <!-- Generator: Sketch 49 (51002) - http://www.bohemiancoding.com/sketch -->
    <desc>Created with Sketch.</desc>
    <defs></defs>
    <g id="Page-1" stroke="none" stroke-width="1" fill="none" fill-rule="evenodd">
        <g id="iPhone-8-Copy-30" transform="translate(-14.000000, -14.000000)" fill="#423385" fill-rule="nonzero">
            <g id="es-logo_bild-copy" transform="translate(14.000000, 14.000000)">
                <path d="M55.6717949,10.3794251 L55.6717949,5.726521 C55.6717949,1.43618086 53.3117949,-0.316211597 49.4389744,0.0463523595 L48.4102564,0.167207012 L10.5292308,4.15541053 L9.50051282,4.27626518 C5.62769231,4.69925646 3.20717949,6.93506752 3.20717949,11.2254077 L3.20717949,15.8783118 C3.20717949,18.1141228 1.81538462,19.0205327 0,19.262242 L0,22.8878816 C1.81538462,22.7065996 3.20717949,23.3713002 3.20717949,25.6071113 L3.20717949,30.2600154 C3.20717949,34.5503555 5.62769231,36.3631753 9.50051282,35.940184 L10.5292308,35.8193294 L48.4707692,31.8311258 L49.4994872,31.7102712 C53.3723077,31.2872799 55.7323077,28.9910415 55.7323077,24.7007014 L55.7323077,20.0477973 C55.7323077,17.8119862 57.1241026,16.845149 59,16.663867 L59,13.0382275 C57.0635897,13.2799368 55.6717949,12.5548088 55.6717949,10.3794251 Z M27.0492308,16.3617304 L26.2625641,20.1686519 L18.0328205,21.0146345 L16.9435897,26.0905299 L26.0810256,25.1236927 L25.294359,29.1118962 L14.0994872,30.3204427 C13.0707692,30.4412973 12.2235897,29.5348875 12.465641,28.5076229 L16.52,8.62703265 L29.7723077,7.23720415 L28.9251282,11.2254077 L19.8482051,12.1922449 L18.8194872,17.2077129 L27.0492308,16.3617304 Z M37.6994872,14.6697653 L40.1805128,15.5157478 C43.3271795,16.5430124 44.5979487,18.4162595 44.5979487,20.9542072 C44.5979487,24.3381374 41.814359,27.8429223 37.094359,28.3263409 C31.2246154,28.9306142 29.1066667,25.18412 29.1066667,22.1627537 C29.1066667,22.041899 29.1066667,21.7397624 29.1671795,21.4980531 L33.04,20.4707885 C33.04,20.7124979 33.04,20.8333525 33.04,21.0750618 C33.04,23.0691636 34.1897436,24.9424107 37.094359,24.7007014 C39.1517949,24.4589921 40.3620513,23.2504455 40.4225641,21.7397624 C40.4225641,20.7124979 39.9384615,19.9873699 38.6071795,19.5643787 L36.0051282,18.7183961 C33.3425641,17.7515589 31.8902564,16.0595938 31.8902564,13.4007914 C31.8902564,9.35216056 35.2789744,6.27036694 39.3938462,5.84737566 C45.0215385,5.2431024 46.5948718,8.98959661 46.5948718,11.285835 L42.7220513,12.3130995 C42.7220513,11.5275443 42.3589744,9.11045126 39.2123077,9.47301522 C37.3364103,9.71472452 36.0051282,11.104553 36.0051282,12.5548088 C36.065641,13.6425007 36.7917949,14.3676286 37.6994872,14.6697653 Z" id="Shape"></path>
            </g>
        </g>
    </g>
</svg>
