
<svg width="62px" height="36px" viewBox="0 0 139 81" version="1.1" xmlns="http://www.w3.org/2000/svg" xmlns:xlink="http://www.w3.org/1999/xlink">
    <!-- Generator: Sketch 49.3 (51167) - http://www.bohemiancoding.com/sketch -->
    <desc>Created with Sketch.</desc>
    <defs></defs>
    <g id="Page-1" stroke="none" stroke-width="1" fill="none" fill-rule="evenodd">
        <g id="Artboard-2-Copy-8" transform="translate(-14.000000, -47.000000)" fill="#542A8C" fill-rule="nonzero">
            <g id="es-logo_bild-copy-2" transform="translate(14.000000, 47.000000)">
                <path d="M131.158974,25.1853613 L131.158974,14.1993377 C131.158974,4.06936792 125.598974,-0.308939538 116.474872,0.152096136 L114.051282,0.332520713 L24.8061538,5.88534146 L22.3825641,6.06576603 C13.2584615,6.66947734 7.55589744,11.7015894 7.55589744,21.8315592 L7.55589744,32.8175827 C7.55589744,38.0965811 4.27692308,40.0947559 0,40.4802937 L0,49.0408315 C4.27692308,48.7979694 7.55589744,50.509361 7.55589744,55.7883593 L7.55589744,66.7743829 C7.55589744,76.9043527 13.2584615,81.4315079 22.3825641,80.8277966 L24.8061538,80.647372 L114.193846,75.1007234 L116.617436,74.9202989 C125.741538,74.3165876 131.301538,69.1356277 131.301538,59.005658 L131.301538,48.0196344 C131.301538,42.740636 134.580513,40.5997856 139,40.3630956 L139,31.8025577 C134.437949,32.1757512 131.158974,30.321684 131.158974,25.1853613 Z M63.7261538,36.390818 L61.8728205,45.2991447 L42.4841026,46.4571901 L39.9179487,58.3308442 L61.4451282,56.98003 L59.5917949,66.3163835 L33.2174359,68.0280469 C30.7938462,68.2084715 28.7979487,65.9819268 29.3682051,63.5811297 L38.92,17.0543818 L70.1415385,15.1245449 L68.145641,24.4547263 L46.7610256,25.8117127 L44.3374359,37.5488634 L63.7261538,36.390818 Z M88.8174359,33.4822002 L94.6625641,35.7327175 C102.075897,38.4791554 105.069744,43.0317153 105.069744,49.0240918 C105.069744,57.0139271 98.5117949,65.0051944 87.3917949,65.6651711 C73.5630769,66.4932281 68.5733333,57.4313135 68.5733333,50.2975319 C68.5733333,50.0121807 68.5733333,49.2988025 68.7158974,48.7342722 L77.84,46.7038046 C77.84,47.2745071 77.84,47.5598583 77.84,48.1305609 C77.84,52.8388567 80.5487179,57.3790722 87.3917949,57.1046333 C92.2389744,56.7437841 95.0902564,54.0137147 95.2328205,50.4529961 C95.2328205,48.0275103 94.0923077,46.2660255 90.9558974,45.1315086 L84.825641,42.868647 C78.5528205,40.314262 75.1312821,36.1712125 75.1312821,29.8934847 C75.1312821,20.3342175 83.1148718,13.4034011 92.8092308,12.8243785 C106.067692,11.9716329 109.774359,20.9779981 109.774359,26.399672 L100.650256,28.4301397 C100.650256,26.5753565 99.7948718,20.8312983 92.3815385,21.3663999 C87.9620513,21.7457655 84.825641,24.8915175 84.825641,28.3157327 C84.9682051,30.8900662 86.6789744,32.6762396 88.8174359,33.4822002 Z" id="Shape"></path>
            </g>
        </g>
    </g>
</svg>
