
<svg width="214px" height="153px" viewBox="0 0 214 153" version="1.1" xmlns="http://www.w3.org/2000/svg" xmlns:xlink="http://www.w3.org/1999/xlink">
    <!-- Generator: Sketch 48.2 (47327) - http://www.bohemiancoding.com/sketch -->
    <desc>Created with Sketch.</desc>
    <defs></defs>
    <g id="Page-1" stroke="none" stroke-width="1" fill="none" fill-rule="evenodd">
        <g id="iPhone-8-Copy-29" transform="translate(-81.000000, -48.000000)" fill-rule="nonzero">
            <g id="es-logo_bild+wort-copy" transform="translate(81.000000, 48.000000)">
                <path d="M201.928205,36.9046226 L201.928205,20.3609636 C201.928205,5.10642083 193.368205,-1.1243079 179.321026,0.164808389 L175.589744,0.594513819 L38.1907692,14.774793 L34.4594872,15.2044984 C20.4123077,16.7084674 11.6328205,24.6580179 11.6328205,39.9125606 L11.6328205,56.4562196 C11.6328205,64.4057701 6.58461538,67.6285608 0,68.4879717 L0,81.3791345 C6.58461538,80.7345764 11.6328205,83.0979563 11.6328205,91.0475067 L11.6328205,107.591166 C11.6328205,122.845708 20.4123077,129.29129 34.4594872,127.787321 L38.1907692,127.357615 L175.809231,113.177336 L179.540513,112.747631 C193.587692,111.243662 202.147692,103.079259 202.147692,87.824716 L202.147692,71.281057 C202.147692,63.3315065 207.195897,59.8938631 214,59.2493049 L214,46.358142 C206.97641,47.2175529 201.928205,44.6393203 201.928205,36.9046226 Z M98.1107692,58.1750414 L95.2574359,71.7107624 L65.4071795,74.7187004 L61.4564103,92.7663284 L94.5989744,89.328685 L91.745641,103.508964 L51.1405128,107.806018 C47.4092308,108.235724 44.3364103,105.012933 45.214359,101.360437 L59.92,30.6738939 L107.987692,25.7322814 L104.914872,39.9125606 L71.9917949,43.350204 L68.2605128,61.1829794 L98.1107692,58.1750414 Z M136.740513,52.1591653 L145.739487,55.1671033 C157.152821,58.8195995 161.762051,65.4800337 161.762051,74.5038477 C161.762051,86.5355997 151.665641,98.9970571 134.545641,100.715879 C113.255385,102.864406 105.573333,89.5435377 105.573333,78.800902 C105.573333,78.3711965 105.573333,77.296933 105.792821,76.4375221 L119.84,72.785026 C119.84,73.6444368 119.84,74.0741422 119.84,74.9335531 C119.84,82.0236927 124.010256,88.6841268 134.545641,87.824716 C142.008205,86.9653051 146.397949,82.6682508 146.617436,77.296933 C146.617436,73.6444368 144.861538,71.0662042 140.032821,69.5622352 L130.594872,66.5542972 C120.937436,63.1166538 115.669744,57.1007778 115.669744,47.6472583 C115.669744,33.2521265 127.961026,22.294638 142.886154,20.790669 C163.298462,18.6421419 169.005128,31.9630102 169.005128,40.1274133 L154.957949,43.7799095 C154.957949,40.9868242 153.641026,32.3927156 142.227692,33.6818319 C135.42359,34.5412427 130.594872,39.4828552 130.594872,44.6393203 C130.814359,48.5066692 133.448205,51.0849018 136.740513,52.1591653 Z" id="Shape" fill="#00369C"></path>
                <g id="Group" transform="translate(25.000000, 122.000000)" fill="#505050">
                    <polygon id="Shape" points="0.654545455 30.5637037 0.654545455 17.692963 8.50909091 16.8203704 8.50909091 18.5655556 2.4 19.22 2.4 23.1466667 7.85454545 22.4922222 7.85454545 24.2374074 2.4 24.8918519 2.4 28.8185185 8.50909091 28.1640741 8.50909091 29.9092593"></polygon>
                    <polygon id="Shape" points="19.8545455 28.6003704 12.8727273 18.7837037 12.8727273 29.2548148 11.1272727 29.472963 11.1272727 16.6022222 13.5272727 16.3840741 19.8545455 25.5462963 19.8545455 15.7296296 21.6 15.5114815 21.6 28.3822222"></polygon>
                    <path d="M28.8,22.4922222 L26.8363636,22.7103704 L26.8363636,27.9459259 L25.0909091,28.1640741 L25.0909091,15.2933333 L29.8909091,14.857037 C32.2909091,14.6388889 33.8181818,16.1659259 33.8181818,18.3474074 C33.8181818,20.0925926 32.7272727,21.8377778 30.7636364,22.2740741 L33.8181818,27.2914815 L31.8545455,27.5096296 L28.8,22.4922222 Z M29.6727273,20.747037 C31.2,20.5288889 32.0727273,19.6562963 32.0727273,18.3474074 C32.0727273,17.0385185 31.2,16.1659259 29.6727273,16.3840741 L27.0545455,16.6022222 L27.0545455,20.9651852 L29.6727273,20.747037 Z" id="Shape"></path>
                    <polygon id="Shape" points="36.2181818 26.8551852 36.2181818 13.9844444 37.9900826 13.7662963 37.9900826 26.637037"></polygon>
                    <path d="M40.5818182,19.8744444 C40.5818182,15.5114815 43.8545455,12.8937037 46.9090909,12.4574074 C49.7454545,12.2392593 51.9272727,13.5481481 52.5818182,15.9477778 L50.8363636,16.6022222 C50.4,14.6388889 48.8727273,13.7662963 46.9090909,13.9844444 C44.5090909,14.2025926 42.3272727,16.1659259 42.3272727,19.4381481 C42.3272727,22.7103704 44.5090909,24.2374074 46.9090909,24.0192593 C49.0909091,23.8011111 50.4,22.2740741 51.0545455,20.5288889 L52.5818182,20.9651852 C51.9272727,23.3648148 49.9636364,25.3281481 46.9090909,25.7644444 C43.6363636,26.4188889 40.5818182,24.2374074 40.5818182,19.8744444 Z" id="Shape"></path>
                    <path d="M60.4363636,11.1485185 C63.7090909,10.7122222 66.9818182,12.8937037 66.9818182,17.2566667 C66.9818182,21.6196296 63.7090909,24.2374074 60.4363636,24.6737037 C57.1636364,25.11 53.8909091,22.9285185 53.8909091,18.5655556 C54.1090909,14.2025926 57.1636364,11.5848148 60.4363636,11.1485185 Z M60.4363636,22.9285185 C62.8363636,22.7103704 65.0181818,20.747037 65.0181818,17.2566667 C65.0181818,13.7662963 62.8363636,12.4574074 60.4363636,12.6755556 C58.0363636,12.8937037 55.8545455,14.857037 55.8545455,18.1292593 C55.8545455,21.4014815 58.0363636,23.1466667 60.4363636,22.9285185 Z" id="Shape"></path>
                    <path d="M80.5090909,12.8937037 C80.2909091,12.0211111 79.6363636,10.7122222 77.8909091,10.9303704 C76.3636364,11.1485185 75.4909091,12.2392593 75.4909091,13.33 C75.4909091,14.2025926 76.1454545,14.857037 77.2363636,15.0751852 L79.2,15.2933333 C81.3818182,15.5114815 82.4727273,16.8203704 82.4727273,18.5655556 C82.4727273,20.5288889 80.7272727,22.4922222 78.1090909,22.9285185 C75.0545455,23.1466667 73.5272727,21.4014815 73.3090909,19.6562963 L75.0545455,19.0018519 C75.2727273,20.5288889 76.1454545,21.6196296 78.1090909,21.4014815 C79.8545455,21.1833333 80.7272727,20.0925926 80.7272727,19.0018519 C80.7272727,18.1292593 80.0727273,17.2566667 78.7636364,17.2566667 L77.0181818,17.0385185 C75.2727273,16.8203704 73.9636364,15.7296296 73.9636364,13.7662963 C73.9636364,11.802963 75.9272727,9.83962963 78.1090909,9.40333333 C80.9454545,9.18518519 82.2545455,10.7122222 82.4727273,12.2392593 L80.5090909,12.8937037 Z" id="Shape"></path>
                    <path d="M83.7818182,15.5114815 C83.7818182,11.1485185 87.0545455,8.53074074 90.1090909,8.09444444 C92.9454545,7.8762963 95.1272727,9.18518519 95.7818182,11.5848148 L94.0363636,12.2392593 C93.6,10.2759259 92.0727273,9.40333333 90.1090909,9.62148148 C87.7090909,9.83962963 85.5272727,11.802963 85.5272727,15.0751852 C85.5272727,18.3474074 87.7090909,19.8744444 90.1090909,19.6562963 C92.2909091,19.4381481 93.6,17.9111111 94.2545455,16.1659259 L95.7818182,16.6022222 C95.1272727,19.0018519 93.1636364,20.9651852 90.1090909,21.4014815 C86.8363636,21.8377778 83.7818182,19.6562963 83.7818182,15.5114815 Z" id="Shape"></path>
                    <polygon id="Shape" points="106.690909 19.4381481 106.690909 13.7662963 100.145455 14.4207407 100.145455 20.0925926 98.1818182 20.3107407 98.1818182 7.44 99.9272727 7.22185185 99.9272727 12.6755556 106.472727 12.0211111 106.472727 6.56740741 108.218182 6.34925926 108.218182 19.22"></polygon>
                    <polygon id="Shape" points="111.709091 19.0018519 111.709091 6.13111111 119.563636 5.25851852 119.563636 7.0037037 113.454545 7.44 113.454545 11.3666667 118.909091 10.7122222 118.909091 12.4574074 113.454545 13.1118519 113.454545 17.0385185 119.563636 16.3840741 119.563636 18.1292593"></polygon>
                    <path d="M125.890909,12.2392593 L123.927273,12.4574074 L123.927273,17.692963 L122.181818,17.9111111 L122.181818,5.04037037 L126.981818,4.60407407 C129.381818,4.38592593 130.909091,5.91296296 130.909091,8.09444444 C130.909091,9.83962963 129.818182,11.5848148 127.854545,12.0211111 L130.909091,17.0385185 L128.945455,17.2566667 L125.890909,12.2392593 Z M126.763636,10.4940741 C128.290909,10.2759259 129.163636,9.40333333 129.163636,8.09444444 C129.163636,6.78555556 128.290909,5.91296296 126.763636,6.13111111 L124.145455,6.34925926 L124.145455,10.7122222 L126.763636,10.4940741 Z" id="Shape"></path>
                    <polygon id="Shape" points="133.527273 16.6022222 133.527273 3.73148148 135.272727 3.51333333 135.272727 14.6388889 141.381818 13.9844444 141.381818 15.7296296"></polygon>
                    <polygon id="Shape" points="143.345455 15.5114815 143.345455 2.64074074 145.117355 2.42259259 145.117355 15.2933333"></polygon>
                    <polygon id="Shape" points="148.581818 15.0751852 148.581818 2.20444444 156.436364 1.33185185 156.436364 3.07703704 150.327273 3.73148148 150.327273 7.65814815 155.781818 7.0037037 155.781818 8.74888889 150.327273 9.40333333 150.327273 13.33 156.436364 12.6755556 156.436364 14.4207407"></polygon>
                    <path d="M165.6,3.94962963 C165.381818,3.07703704 164.727273,1.76814815 162.981818,1.9862963 C161.454545,2.20444444 160.581818,3.29518519 160.581818,4.38592593 C160.581818,5.25851852 161.236364,5.91296296 162.327273,6.13111111 L164.290909,6.34925926 C166.472727,6.56740741 167.563636,7.8762963 167.563636,9.62148148 C167.563636,11.5848148 165.818182,13.5481481 163.2,13.9844444 C160.145455,14.2025926 158.618182,12.4574074 158.4,10.7122222 L160.145455,10.0577778 C160.363636,11.5848148 161.236364,12.6755556 163.2,12.4574074 C164.945455,12.2392593 165.818182,11.1485185 165.818182,10.0577778 C165.818182,9.18518519 165.163636,8.31259259 163.854545,8.31259259 L162.109091,8.09444444 C160.363636,7.8762963 159.054545,6.78555556 159.054545,4.82222222 C159.054545,2.85888889 161.018182,0.895555556 163.2,0.459259259 C166.036364,0.241111111 167.345455,1.76814815 167.563636,3.29518519 L165.6,3.94962963 Z" id="Shape"></path>
                </g>
            </g>
        </g>
    </g>
</svg>
